<svg xmlns="http://www.w3.org/2000/svg" version="1.1" xmlns:xlink="http://www.w3.org/1999/xlink" xmlns:svgjs="http://svgjs.dev/svgjs" width="2000" height="707" viewBox="0 0 2000 707"><g transform="matrix(1,0,0,1,-1.2121212121212466,-0.5714612296592918)"><svg viewBox="0 0 396 140" data-background-color="#ffffff" preserveAspectRatio="xMidYMid meet" height="707" width="2000" xmlns="http://www.w3.org/2000/svg" xmlns:xlink="http://www.w3.org/1999/xlink"><g id="tight-bounds" transform="matrix(1,0,0,1,0.2400000000000091,0.11316063953648836)"><svg viewBox="0 0 395.52 139.77367872092702" height="139.77367872092702" width="395.52"><g><svg viewBox="0 0 691.6716537183431 244.43135999999998" height="139.77367872092702" width="395.52"><g transform="matrix(1,0,0,1,0,59.67497828877871)"><svg viewBox="0 0 395.52 125.08140342244256" height="125.08140342244256" width="395.52"><g id="textblocktransform"><svg viewBox="0 0 395.52 125.08140342244256" height="125.08140342244256" width="395.52" id="textblock"><g><svg viewBox="0 0 395.52 87.63329388560156" height="87.63329388560156" width="395.52"><g transform="matrix(1,0,0,1,0,0)"><svg width="395.52" viewBox="1.75 -32.3 152.09 33.699999999999996" height="87.63329388560156" data-palette-color="#7a26c1"><path d="M16.35 0.6Q11.1 0.6 8.25-2.27 5.4-5.15 5.4-10.45L5.4-10.45 5.4-27Q5.4-28.6 5.03-29.15 4.65-29.7 3.55-29.7L3.55-29.7Q3.05-29.7 2.55-29.65 2.05-29.6 1.85-29.6L1.85-29.6 1.75-29.8 2.1-32Q2.7-31.95 4.38-31.9 6.05-31.85 7.75-31.85L7.75-31.85Q9.1-31.85 10.8-32.02 12.5-32.2 13-32.3L13-32.3 12.8-30.05Q10.95-29.8 10.33-29.23 9.7-28.65 9.6-27.2L9.6-27.2 9.2-12.5Q9.2-7.55 11.35-4.9 13.5-2.25 17.55-2.25L17.55-2.25Q21.65-2.25 23.8-4.42 25.95-6.6 25.95-10.7L25.95-10.7Q25.9-14.7 25.8-19.83 25.7-24.95 25.65-27L25.65-27Q25.55-28.75 25.23-29.23 24.9-29.7 23.8-29.7L23.8-29.7Q23.2-29.7 22.55-29.65 21.9-29.6 21.65-29.6L21.65-29.6 21.55-29.8 21.9-32Q22.5-31.95 24.18-31.9 25.85-31.85 27.55-31.85L27.55-31.85Q28.9-31.85 30.43-32.02 31.95-32.2 32.4-32.3L32.4-32.3 32.2-30.05Q30.7-29.85 29.98-29.58 29.25-29.3 29-28.78 28.75-28.25 28.75-27.2L28.75-27.2 28.75-10.4Q28.75-5.15 25.5-2.27 22.25 0.6 16.35 0.6L16.35 0.6ZM57.15-6.8L57.1-21.25Q57.1-22.9 55.75-22.9L55.75-22.9 54.25-22.9 54.15-23.1 54.5-25.05Q54.95-25 56.2-24.95 57.45-24.9 58.75-24.9L58.75-24.9Q59.85-24.9 61.22-25.03 62.6-25.15 63-25.2L63-25.2 62.8-23.15Q61.35-22.95 60.72-22.38 60.1-21.8 60.05-20.65L60.05-20.65 59.45 0.85 57.5 1.4Q52.75-5.55 47.9-12.2 43.05-18.85 43.05-18.75L43.05-18.75 42.8-18.75 42.65-3.6Q42.65-2.65 42.95-2.3 43.25-1.95 43.95-1.95L43.95-1.95 45.95-2 46.1-1.85 45.7 0.15Q45.25 0.1 43.92 0.05 42.6 0 41.15 0L41.15 0Q40 0 38.7 0.13 37.4 0.25 37 0.3L37 0.3 37.25-1.75Q38.5-1.9 39.1-2.48 39.7-3.05 39.75-4.2L39.75-4.2 40.3-20.7Q40.3-21.95 39.57-22.43 38.85-22.9 36.8-23.15L36.8-23.15 36.6-23.4 36.95-25.1Q37.35-25.05 38.47-24.98 39.6-24.9 40.75-24.9L40.75-24.9Q41.85-24.9 42.7-24.95 43.55-25 43.8-25.05L43.8-25.05Q47.85-19.1 52.37-12.9 56.9-6.7 56.9-6.8L56.9-6.8 57.15-6.8ZM75.45 0.65Q74.84-1.4 72.72-8.13 70.59-14.85 68.65-20.65L68.65-20.65Q68.3-21.75 67.42-22.3 66.55-22.85 65.05-22.95L65.05-22.95 64.95-23.1 65.25-25Q65.8-25 67.25-24.95 68.7-24.9 70.09-24.9L70.09-24.9Q71.59-24.9 73.7-25.08 75.8-25.25 76.45-25.3L76.45-25.3 76.59-25 76.45-23.2Q74.25-23.05 73.57-22.75 72.9-22.45 72.9-21.65L72.9-21.65Q72.9-20.85 74.92-13.8 76.95-6.75 77.7-4.2L77.7-4.2 78.15-4.2Q79.9-8.4 82.22-14.6 84.55-20.8 84.55-21.6L84.55-21.6Q84.55-22.4 83.95-22.73 83.34-23.05 81.9-23.05L81.9-23.05 79.9-23.05 79.8-23.25 80.05-25.15Q80.59-25.1 82.42-25 84.25-24.9 85.95-24.9L85.95-24.9Q87.5-24.9 88.8-24.95 90.09-25 90.55-25L90.55-25 90.2-22.95Q89-22.9 88.52-22.53 88.05-22.15 87.59-21L87.59-21 79.15-0.2 75.45 0.65ZM93.69 0.4L93.94-1.7Q95.79-1.9 96.44-2.6 97.09-3.3 97.09-5L97.09-5 97.14-20.85Q97.14-22.1 96.84-22.53 96.54-22.95 95.64-22.95L95.64-22.95 94.29-22.9 94.19-23.1 94.49-25Q95.09-25 96.84-24.95 98.59-24.9 100.64-24.9L100.64-24.9Q108.99-24.9 112.99-25.35L112.99-25.35 113.14-25.1Q113.04-24.55 112.69-22.6 112.34-20.65 112.19-18.4L112.19-18.4 109.79-18.2Q109.79-18.4 109.84-18.88 109.89-19.35 109.89-19.85L109.89-19.85Q109.89-21.15 109.52-21.68 109.14-22.2 107.97-22.38 106.79-22.55 103.89-22.55L103.89-22.55Q102.54-22.55 102.04-22.48 101.54-22.4 101.39-22.13 101.24-21.85 101.19-21.1L101.19-21.1 100.89-14 104.99-13.95Q105.89-13.95 107.64-14.13 109.39-14.3 109.94-14.35L109.94-14.35 110.14-14.1 109.54-11.5Q108.99-11.5 107.37-11.55 105.74-11.6 103.94-11.6L103.94-11.6Q102.54-11.6 100.79-11.35L100.79-11.35Q100.64-7.55 100.64-4.5L100.64-4.5Q100.64-3.35 100.82-2.9 100.99-2.45 101.62-2.3 102.24-2.15 103.69-2.15L103.69-2.15Q106.94-2.15 108.34-2.45 109.74-2.75 110.32-3.68 110.89-4.6 111.24-6.85L111.24-6.85 113.44-7.05 113.64-6.8Q113.49-6.25 113.12-4.23 112.74-2.2 112.54 0L112.54 0 112.24 0.25Q110.89 0.2 106.64 0.1 102.39 0 99.74 0L99.74 0Q97.69 0 95.94 0.18 94.19 0.35 93.69 0.4L93.69 0.4ZM119.04 0.45L119.29-1.6Q121.19-1.95 121.84-2.63 122.49-3.3 122.49-4.95L122.49-4.95 122.54-20.85Q122.54-22.1 122.24-22.53 121.94-22.95 121.04-22.95L121.04-22.95 119.39-22.9 119.29-23.1 119.54-25Q119.84-25 121.17-24.95 122.49-24.9 124.64-24.9L124.64-24.9Q125.79-24.9 127.47-25.05 129.14-25.2 129.64-25.25L129.64-25.25 129.44-23.2Q127.79-23 127.24-22.58 126.69-22.15 126.59-21L126.59-21Q126.39-17 126.22-12.15 126.04-7.3 126.04-4.65L126.04-4.65Q126.04-3.05 126.39-2.5 126.74-1.95 127.79-1.95L127.79-1.95Q128.49-1.95 129.07-2 129.64-2.05 129.84-2.1L129.84-2.1 129.94-1.9 129.59 0.1Q128.99 0.1 127.34 0.05 125.69 0 124.04 0L124.04 0Q122.69 0 121.12 0.18 119.54 0.35 119.04 0.45L119.04 0.45ZM135.39 0.4L135.69-1.7Q137.29-1.95 137.86-2.63 138.44-3.3 138.44-5L138.44-5 138.49-20.85Q138.49-22.1 138.19-22.53 137.89-22.95 136.99-22.95L136.99-22.95 135.64-22.9 135.49-23.1 135.79-25Q136.04-25 137.29-24.95 138.54-24.9 140.64-24.9L140.64-24.9Q141.74-24.9 143.36-25.05 144.99-25.2 145.49-25.25L145.49-25.25 145.29-23.15Q143.94-23 143.39-22.68 142.84-22.35 142.74-21.85 142.64-21.35 142.49-19.8L142.49-19.8Q141.99-13.1 141.99-4.95L141.99-4.95Q141.99-3.7 142.21-3.13 142.44-2.55 143.11-2.35 143.79-2.15 145.24-2.15L145.24-2.15Q147.64-2.15 148.76-2.55 149.89-2.95 150.46-4.13 151.04-5.3 151.49-7.85L151.49-7.85 153.69-8.1 153.84-7.8Q153.74-7.15 153.36-4.83 152.99-2.5 152.69 0.05L152.69 0.05 152.44 0.35Q151.29 0.3 147.56 0.15 143.84 0 141.29 0L141.29 0Q139.29 0 137.56 0.18 135.84 0.35 135.39 0.4L135.39 0.4Z" opacity="1" transform="matrix(1,0,0,1,0,0)" fill="#ffffff" class="wordmark-text-0" data-fill-palette-color="primary" id="text-0"></path></svg></g></svg></g><g transform="matrix(1,0,0,1,163.310208,108.32141137293884)"><svg viewBox="0 0 232.209792 16.75999204950373" height="16.75999204950373" width="232.209792"><g transform="matrix(1,0,0,1,0,0)"><svg width="232.209792" viewBox="4.25 -36.055802948608 638.03 46.055802948608" height="16.75999204950373" data-palette-color="#7a26c1"><path d="M4.25-35L15.8-35Q21.6-35 25.73-32.88 29.85-30.75 32.08-26.8 34.3-22.85 34.3-17.4L34.3-17.4Q34.3-12 32.08-8.1 29.85-4.2 25.73-2.1 21.6 0 15.8 0L15.8 0 4.25 0 4.25-35ZM8.25-3.5L15.8-3.5Q22.95-3.5 26.6-7.15 30.25-10.8 30.25-17.4L30.25-17.4Q30.25-24.05 26.6-27.78 22.95-31.5 15.8-31.5L15.8-31.5 8.25-31.5 8.25-3.5ZM51.1 0.35L51.1 0.35Q47.55 0.35 44.75-1.2 41.95-2.75 40.35-5.63 38.75-8.5 38.75-12.45L38.75-12.45Q38.75-16.45 40.37-19.35 42-22.25 44.82-23.8 47.65-25.35 51.2-25.35L51.2-25.35Q54.75-25.35 57.57-23.8 60.4-22.25 62.02-19.38 63.65-16.5 63.65-12.55L63.65-12.55Q63.65-8.55 62-5.65 60.35-2.75 57.5-1.2 54.65 0.35 51.1 0.35ZM51.05-3.2L51.05-3.2Q53.25-3.2 55.2-4.17 57.15-5.15 58.37-7.23 59.6-9.3 59.6-12.5L59.6-12.5Q59.6-15.75 58.4-17.8 57.2-19.85 55.27-20.83 53.35-21.8 51.15-21.8L51.15-21.8Q48.95-21.8 47.05-20.83 45.15-19.85 43.97-17.78 42.8-15.7 42.8-12.5L42.8-12.5Q42.8-9.25 43.95-7.2 45.1-5.15 46.97-4.17 48.85-3.2 51.05-3.2ZM69.8 0L69.8-25 73.25-25 73.45-21.45Q74.65-23.3 76.6-24.33 78.55-25.35 81.15-25.35L81.15-25.35Q84-25.35 86.15-24.13 88.3-22.9 89.5-20.48 90.7-18.05 90.7-14.4L90.7-14.4 90.7 0 86.95 0 86.95-13.95Q86.95-17.85 85.27-19.88 83.6-21.9 80.45-21.9L80.45-21.9Q77.2-21.9 75.37-19.75 73.55-17.6 73.55-13.4L73.55-13.4 73.55 0 69.8 0ZM97.44-25.5L96.84-35 100.79-35 100.19-25.5 97.44-25.5ZM105.29-25L109.04-25 109.04-32 112.79-32 112.79-25 119.44-25 119.44-21.5 112.79-21.5 112.79-8.05Q112.79-5.75 113.77-4.7 114.74-3.65 116.27-3.45 117.79-3.25 119.44-3.45L119.44-3.45 119.44-0.2Q117.49 0.25 115.62 0.05 113.74-0.15 112.27-1.07 110.79-2 109.92-3.7 109.04-5.4 109.04-8.05L109.04-8.05 109.04-21.5 105.29-21.5 105.29-25ZM139.04 0L139.04-36 142.79-36 142.79-21.6Q143.99-23.4 146.04-24.38 148.09-25.35 150.64-25.35L150.64-25.35Q153.39-25.35 155.54-24.1 157.69-22.85 158.91-20.4 160.14-17.95 160.14-14.3L160.14-14.3 160.14 0 156.14 0 156.14-13.85Q156.14-17.75 154.49-19.83 152.84-21.9 149.69-21.9L149.69-21.9Q146.44-21.9 144.61-19.7 142.79-17.5 142.79-13.3L142.79-13.3 142.79 0 139.04 0ZM168.13 0L168.13-25 171.83-25 171.83 0 168.13 0ZM170.03-30L170.03-30Q168.88-30 168.13-30.75 167.38-31.5 167.38-32.6L167.38-32.6Q167.38-33.75 168.13-34.5 168.88-35.25 170.03-35.25L170.03-35.25Q171.08-35.25 171.86-34.5 172.63-33.75 172.63-32.6L172.63-32.6Q172.63-31.5 171.86-30.75 171.08-30 170.03-30ZM199.58-19.95L199.58-19.95 199.18-19.9 199.18-36 202.93-36 202.93 0 199.48 0 199.23-4.65Q198.08-2.55 195.81-1.1 193.53 0.35 190.18 0.35L190.18 0.35Q186.73 0.35 184.16-1.23 181.58-2.8 180.16-5.7 178.73-8.6 178.73-12.5L178.73-12.5Q178.73-16.4 180.16-19.28 181.58-22.15 184.16-23.75 186.73-25.35 190.18-25.35L190.18-25.35Q193.73-25.35 196.08-23.8 198.43-22.25 199.58-19.95ZM182.78-12.5L182.78-12.5Q182.78-8.2 184.98-5.68 187.18-3.15 190.98-3.15L190.98-3.15Q193.33-3.15 195.18-4.25 197.03-5.35 198.11-7.45 199.18-9.55 199.18-12.5L199.18-12.5Q199.18-15.45 198.11-17.53 197.03-19.6 195.18-20.73 193.33-21.85 190.98-21.85L190.98-21.85Q187.23-21.85 185.01-19.33 182.78-16.8 182.78-12.5ZM221.08 0.35L221.08 0.35Q217.58 0.35 214.85-1.35 212.13-3.05 210.58-6 209.03-8.95 209.03-12.75L209.03-12.75Q209.03-16.4 210.58-19.25 212.13-22.1 214.83-23.73 217.53-25.35 220.98-25.35L220.98-25.35Q224.38-25.35 227.05-23.85 229.73-22.35 231.23-19.7 232.73-17.05 232.63-13.65L232.63-13.65Q232.63-13.1 232.58-12.5 232.53-11.9 232.48-11.2L232.48-11.2 213.13-11.2Q213.23-8.85 214.28-7.05 215.33-5.25 217.05-4.23 218.78-3.2 220.98-3.2L220.98-3.2Q223.88-3.2 225.9-4.3 227.93-5.4 228.83-7.45L228.83-7.45 232.08-6.15Q230.58-3 227.73-1.33 224.88 0.35 221.08 0.35ZM213.18-14.45L228.53-14.45Q228.58-16.6 227.6-18.25 226.63-19.9 224.88-20.85 223.13-21.8 220.83-21.8L220.83-21.8Q218.83-21.8 217.18-20.85 215.53-19.9 214.45-18.23 213.38-16.55 213.18-14.45L213.18-14.45ZM235.33 7.25L239.03-6.05 243.43-6.05 238.03 7.25 235.33 7.25ZM264.67-12.95L264.67-35 268.67-35 268.67-12.9Q268.67-9.45 269.92-7.3 271.17-5.15 273.3-4.15 275.42-3.15 278.12-3.15L278.12-3.15Q280.77-3.15 282.87-4.15 284.97-5.15 286.22-7.3 287.47-9.45 287.47-12.9L287.47-12.9 287.47-35 291.47-35 291.47-12.95Q291.47-9.5 290.4-7 289.32-4.5 287.42-2.88 285.52-1.25 283.12-0.45 280.72 0.35 278.07 0.35L278.07 0.35Q274.47 0.35 271.42-1.07 268.37-2.5 266.52-5.45 264.67-8.4 264.67-12.95L264.67-12.95ZM299.32 0L299.32-25 302.77-25 302.97-21.45Q304.17-23.3 306.12-24.33 308.07-25.35 310.67-25.35L310.67-25.35Q313.52-25.35 315.67-24.13 317.82-22.9 319.02-20.48 320.22-18.05 320.22-14.4L320.22-14.4 320.22 0 316.47 0 316.47-13.95Q316.47-17.85 314.79-19.88 313.12-21.9 309.97-21.9L309.97-21.9Q306.72-21.9 304.89-19.75 303.07-17.6 303.07-13.4L303.07-13.4 303.07 0 299.32 0ZM324.42-25L328.42-25 336.32-4.2 344.27-25 348.22-25 338.22 0 334.32 0 324.42-25ZM363.31 0.35L363.31 0.35Q359.81 0.35 357.09-1.35 354.36-3.05 352.81-6 351.26-8.95 351.26-12.75L351.26-12.75Q351.26-16.4 352.81-19.25 354.36-22.1 357.06-23.73 359.76-25.35 363.21-25.35L363.21-25.35Q366.61-25.35 369.29-23.85 371.96-22.35 373.46-19.7 374.96-17.05 374.86-13.65L374.86-13.65Q374.86-13.1 374.81-12.5 374.76-11.9 374.71-11.2L374.71-11.2 355.36-11.2Q355.46-8.85 356.51-7.05 357.56-5.25 359.29-4.23 361.01-3.2 363.21-3.2L363.21-3.2Q366.11-3.2 368.14-4.3 370.16-5.4 371.06-7.45L371.06-7.45 374.31-6.15Q372.81-3 369.96-1.33 367.11 0.35 363.31 0.35ZM355.41-14.45L370.76-14.45Q370.81-16.6 369.84-18.25 368.86-19.9 367.11-20.85 365.36-21.8 363.06-21.8L363.06-21.8Q361.06-21.8 359.41-20.85 357.76-19.9 356.69-18.23 355.61-16.55 355.41-14.45L355.41-14.45ZM381.76 0L381.76-25 385.46-25 385.46 0 381.76 0ZM383.66-30L383.66-30Q382.51-30 381.76-30.75 381.01-31.5 381.01-32.6L381.01-32.6Q381.01-33.75 381.76-34.5 382.51-35.25 383.66-35.25L383.66-35.25Q384.71-35.25 385.49-34.5 386.26-33.75 386.26-32.6L386.26-32.6Q386.26-31.5 385.49-30.75 384.71-30 383.66-30ZM393.91 0L393.91-36 397.66-36 397.66 0 393.91 0ZM428.5-4.8L436.25-25 440.15-25 425.85 10 422.25 10 426.5-0.35 416.4-25 420.5-25 428.5-4.8ZM455.25 0.35L455.25 0.35Q451.7 0.35 448.9-1.2 446.1-2.75 444.5-5.63 442.9-8.5 442.9-12.45L442.9-12.45Q442.9-16.45 444.53-19.35 446.15-22.25 448.98-23.8 451.8-25.35 455.35-25.35L455.35-25.35Q458.9-25.35 461.73-23.8 464.55-22.25 466.18-19.38 467.8-16.5 467.8-12.55L467.8-12.55Q467.8-8.55 466.15-5.65 464.5-2.75 461.65-1.2 458.8 0.35 455.25 0.35ZM455.2-3.2L455.2-3.2Q457.4-3.2 459.35-4.17 461.3-5.15 462.53-7.23 463.75-9.3 463.75-12.5L463.75-12.5Q463.75-15.75 462.55-17.8 461.35-19.85 459.43-20.83 457.5-21.8 455.3-21.8L455.3-21.8Q453.1-21.8 451.2-20.83 449.3-19.85 448.13-17.78 446.95-15.7 446.95-12.5L446.95-12.5Q446.95-9.25 448.1-7.2 449.25-5.15 451.13-4.17 453-3.2 455.2-3.2ZM494.4-25L494.4 0 491 0 490.75-3.6Q489.6-1.7 487.65-0.68 485.7 0.35 483.1 0.35L483.1 0.35Q480.2 0.35 478.05-0.85 475.9-2.05 474.72-4.45 473.55-6.85 473.55-10.5L473.55-10.5 473.55-25 477.25-25 477.25-10.9Q477.25-7.05 478.92-5.08 480.6-3.1 483.75-3.1L483.75-3.1Q486.95-3.1 488.82-5.18 490.7-7.25 490.7-11.45L490.7-11.45 490.7-25 494.4-25ZM502.05 0L502.05-25 505.5-25 505.7-21.35Q506.7-22.7 508.12-23.65 509.55-24.6 511.27-24.98 513-25.35 514.95-25L514.95-25 514.95-21.25Q512.85-21.65 511.17-21.25 509.5-20.85 508.3-19.75 507.1-18.65 506.45-16.98 505.8-15.3 505.8-13.1L505.8-13.1 505.8 0 502.05 0ZM535.39-25L535.39-27.95Q535.39-30.7 536.29-32.6 537.19-34.5 539.16-35.38 541.14-36.25 544.44-36L544.44-36 544.44-32.65Q541.44-32.9 540.29-31.68 539.14-30.45 539.14-27.95L539.14-27.95 539.14-25 544.64-25 544.64-21.5 539.14-21.5 539.14 0 535.39 0 535.39-21.5 531.89-21.5 531.89-25 535.39-25ZM549.74 0L549.74-36 553.49-36 553.49 0 549.74 0ZM580.23 0L576.78 0 576.48-4.5Q575.43-2.2 573.38-0.93 571.33 0.35 568.18 0.35L568.18 0.35Q565.48 0.35 563.58-0.5 561.68-1.35 560.66-2.93 559.63-4.5 559.63-6.65L559.63-6.65Q559.63-9.8 561.98-11.83 564.33-13.85 568.78-14.3L568.78-14.3 576.48-15.15 576.48-17.15Q576.48-19.25 574.93-20.53 573.38-21.8 570.73-21.8L570.73-21.8Q568.13-21.8 566.41-20.6 564.68-19.4 564.03-17.15L564.03-17.15 560.63-18.35Q561.63-21.65 564.31-23.5 566.98-25.35 570.83-25.35L570.83-25.35Q575.28-25.35 577.76-23.08 580.23-20.8 580.23-16.9L580.23-16.9 580.23 0ZM576.48-11.15L576.48-11.95 568.73-11.05Q566.23-10.75 564.93-9.68 563.63-8.6 563.63-6.85L563.63-6.85Q563.63-5.1 564.91-4.05 566.18-3 568.58-3L568.58-3Q571.33-3 573.08-4.1 574.83-5.2 575.66-7.08 576.48-8.95 576.48-11.15L576.48-11.15ZM601.98-19.4L595.63 0 592.23 0 584.38-25 588.18-25 593.93-4.65 600.38-25 603.78-25 610.13-4.7 615.83-25 619.53-25 611.73 0 608.28 0 601.98-19.4ZM623.08-6.45L626.68-7.65Q626.98-6.15 627.78-5.18 628.58-4.2 629.85-3.7 631.13-3.2 632.83-3.2L632.83-3.2Q635.48-3.2 636.85-4.23 638.23-5.25 638.23-6.8L638.23-6.8Q638.23-8.1 637.4-8.9 636.58-9.7 635.23-10.23 633.88-10.75 632.23-11.15L632.23-11.15Q630.93-11.45 629.43-11.88 627.93-12.3 626.58-13.05 625.23-13.8 624.38-15 623.53-16.2 623.53-18.15L623.53-18.15Q623.53-20.3 624.7-21.93 625.88-23.55 627.95-24.45 630.03-25.35 632.73-25.35L632.73-25.35Q635.83-25.35 638.25-24 640.68-22.65 641.63-19.8L641.63-19.8 638.13-18.6Q637.78-19.9 636.85-20.6 635.93-21.3 634.8-21.55 633.68-21.8 632.58-21.8L632.58-21.8Q630.33-21.8 628.95-20.93 627.58-20.05 627.58-18.3L627.58-18.3Q627.58-17.35 628.03-16.73 628.48-16.1 629.28-15.7 630.08-15.3 631.18-15.03 632.28-14.75 633.58-14.4L633.58-14.4Q635.03-14.05 636.53-13.53 638.03-13 639.33-12.18 640.63-11.35 641.45-10.08 642.28-8.8 642.28-6.9L642.28-6.9Q642.28-4.7 641.08-3.08 639.88-1.45 637.75-0.55 635.63 0.35 632.83 0.35L632.83 0.35Q628.98 0.35 626.45-1.38 623.93-3.1 623.08-6.45L623.08-6.45Z" opacity="1" transform="matrix(1,0,0,1,0,0)" fill="#ffffff" class="slogan-text-1" data-fill-palette-color="secondary" id="text-1"></path></svg></g></svg></g></svg></g></svg></g><g transform="matrix(1,0,0,1,447.2402937183432,0)"><svg viewBox="0 0 244.43135999999998 244.43135999999998" height="244.43135999999998" width="244.43135999999998"><g><svg viewBox="0 0 244.43135999999998 244.43135999999998" height="244.43135999999998" width="244.43135999999998"><g transform="matrix(1,0,0,1,64.60265593644992,84.76863731506819)"><svg viewBox="0 0 115.22604812710014 74.89408536986362" height="74.89408536986362" width="115.22604812710014"><g><svg version="1.1" xmlns="http://www.w3.org/2000/svg" xmlns:xlink="http://www.w3.org/1999/xlink" x="0" y="0" viewBox="0.000815643437422478 0 99.99918435656258 64.997" enable-background="new 0 0 100 64.996" xml:space="preserve" width="115.22604812710014" height="74.89408536986362" class="icon-cg-0" data-fill-palette-color="accent" id="cg-0"><path fill="#ffffff" d="M39.214 39.423l-7.958-2.378 3.02 5.251c0.578 0.89 0.869 2.013 0.914 2.892v1.1c0.285 2.413-1.934 5.113-3.774 6.677v12.032h9.96V45.461L39.214 39.423z" data-fill-palette-color="accent"></path><polygon fill="#ffffff" points="31.415,0 31.415,13.497 41.375,16.458 41.375,9.953 90.051,9.953 90.051,64.996 100,64.996 100,0 	" data-fill-palette-color="accent"></polygon><path fill="#ffffff" d="M61.827 34.278c4.307-1.074 6.929-5.433 5.854-9.723-1.058-4.3-5.42-6.917-9.731-5.856-4.301 1.09-6.919 5.433-5.845 9.724C53.167 32.721 57.527 35.354 61.827 34.278z" data-fill-palette-color="accent"></path><path fill="#ffffff" d="M20.87 12.856c-5.536-2.011-11.642 0.834-13.644 6.372-1.133 3.053-0.78 6.438 0.733 8.907l9.887 16.444L2.699 53.92c-1.84 1.354-2.956 3.676-2.647 6.101 0.44 3.593 3.608 5.228 7.188 4.779 0.824-0.108 1.298-0.452 1.99-0.836l20.609-13.01c1.498-0.999 2.882-3.086 2.709-4.556-0.126-1.063-0.021-2.025-0.384-2.586l-6.452-11.328 15.504 4.638 4.533 11.301c0.66 1.994 1.952 3.247 3.734 3.723l20.204 5.906c2.223 0.584 4.467-0.755 5.045-2.95 0.588-2.206-0.753-4.477-2.946-5.061L55.81 45.38l-6.793-20.443c-0.871-2.432-2.791-4.332-5.096-5.222L20.87 12.856z" data-fill-palette-color="accent"></path></svg></g></svg></g><g id="text-0"><path d="M40.256 83.623c-1.573 3.615-3.778 5.974-6.618 7.076-2.83 1.098-6.071 0.853-9.724-0.736v0l-17.1-7.439c-1.102-0.479-1.898-0.672-2.388-0.578-0.49 0.094-0.901 0.522-1.233 1.284v0c-0.148 0.34-0.282 0.69-0.401 1.05-0.119 0.36-0.209 0.609-0.269 0.748v0l-0.244 0.018-2.116-1.359c0.21-0.396 0.585-1.165 1.127-2.307 0.533-1.139 1.054-2.294 1.564-3.466v0c0.403-0.926 0.799-2.001 1.189-3.224 0.39-1.224 0.626-2.024 0.707-2.4v0l2.234 1.219c-0.377 1.349-0.465 2.326-0.264 2.93 0.21 0.601 0.801 1.154 1.773 1.659v0l15.01 7.024c3.407 1.482 6.346 1.881 8.817 1.195 2.473-0.692 4.317-2.433 5.53-5.223v0c1.227-2.822 1.414-5.299 0.559-7.431-0.855-2.132-2.694-3.812-5.515-5.039v0c-2.772-1.169-5.937-2.485-9.495-3.951-3.563-1.468-6.057-2.493-7.482-3.075v0c-1.239-0.457-2.072-0.643-2.498-0.558-0.42 0.087-0.794 0.508-1.123 1.264v0c-0.178 0.409-0.35 0.848-0.516 1.315-0.163 0.461-0.282 0.776-0.355 0.946v0l-0.244 0.018-2.121-1.35c0.212-0.402 0.588-1.171 1.128-2.307 0.533-1.139 1.054-2.294 1.563-3.466v0c0.405-0.932 0.777-1.95 1.115-3.054 0.338-1.104 0.539-1.825 0.605-2.164v0l2.233 1.219c-0.311 1.093-0.48 1.93-0.507 2.51-0.03 0.586 0.1 1.044 0.392 1.372 0.285 0.326 0.79 0.647 1.514 0.962v0l17.355 7.55c3.622 1.575 5.933 3.914 6.935 7.017 1.011 3.099 0.632 6.683-1.138 10.751z" fill="#ffffff" data-fill-palette-color="accent"></path><path d="M74.26 33.497l-9.521-13.203c-0.723-1.011-1.498-1.221-2.325-0.63v0l-1.375 0.983-0.224-0.118-0.95-2.019c0.298-0.162 0.839-0.503 1.625-1.022 0.784-0.51 1.575-1.051 2.374-1.622v0c0.67-0.48 1.397-1.058 2.178-1.736 0.788-0.682 1.291-1.122 1.512-1.322v0l1.167 2.003c-0.8 0.758-1.264 1.449-1.393 2.073-0.134 0.628 0.035 1.301 0.507 2.018v0l13.545 20.104-1.425 1.78c-5.942-2.168-11.846-4.223-17.712-6.166-5.875-1.945-8.791-2.887-8.747-2.825v0l-0.226 0.161 9.798 13.981c0.416 0.581 0.789 0.914 1.12 0.998 0.34 0.086 0.725-0.025 1.155-0.333v0l1.799-1.363 0.236 0.047 0.938 2.09c-0.294 0.168-0.858 0.525-1.691 1.071-0.83 0.552-1.686 1.143-2.569 1.774v0c-0.704 0.504-1.424 1.078-2.162 1.724-0.747 0.644-1.228 1.069-1.445 1.274v0l-1.116-2.038c0.697-0.642 1.102-1.27 1.213-1.882 0.117-0.616-0.06-1.283-0.532-2.001v0l-10.308-15.49c-0.547-0.765-1.149-1.133-1.804-1.104-0.649 0.025-1.653 0.41-3.012 1.154v0l-0.346-0.094-0.797-1.786c0.266-0.148 0.758-0.445 1.477-0.893 0.723-0.441 1.437-0.914 2.141-1.417v0c0.67-0.48 1.253-0.922 1.749-1.327 0.5-0.4 0.813-0.67 0.939-0.811v0c5.076 1.866 10.352 3.704 15.826 5.513 5.475 1.809 8.19 2.683 8.146 2.622v0z" fill="#ffffff" data-fill-palette-color="accent"></path><path d="M111.773 30.434c-0.596-1.487-1.939-4.667-4.029-9.541-2.083-4.867-4.066-9.399-5.951-13.595v0c-0.348-0.794-0.866-1.364-1.557-1.709-0.697-0.345-1.609-0.5-2.737-0.465v0l-0.13-0.163 0.128-2.156c0.41-0.041 1.157-0.097 2.24-0.169 1.091-0.066 2.159-0.151 3.205-0.255v0c1.121-0.111 2.461-0.312 4.019-0.605 1.559-0.285 2.58-0.469 3.062-0.551v0l0.198 0.322 0.034 2.026c-1.636 0.279-2.695 0.556-3.179 0.832-0.483 0.276-0.696 0.711-0.637 1.305v0c0.059 0.601 1.108 3.462 3.147 8.582 2.032 5.12 3.422 8.607 4.171 10.458v0l0.513-0.05c0.995-3.273 2.131-7.313 3.409-12.119 1.285-4.807 1.897-7.511 1.838-8.112v0c-0.059-0.595-0.326-0.993-0.802-1.194-0.475-0.195-1.252-0.239-2.332-0.132v0l-2.245 0.222-0.135-0.214 0.066-2.16c0.421 0 1.315-0.03 2.683-0.09 1.374-0.06 2.697-0.153 3.968-0.278v0c1.155-0.114 2.219-0.24 3.193-0.378 0.967-0.13 1.618-0.212 1.953-0.245v0l-0.162 2.335c-0.899 0.123-1.512 0.343-1.84 0.658-0.328 0.315-0.616 0.92-0.866 1.815v0l-7.167 24.261z" fill="#ffffff" data-fill-palette-color="accent"></path><path d="M147.029 31.903l1.087-2.125c1.355 0.336 2.351 0.343 2.989 0.02 0.64-0.329 1.18-1.092 1.62-2.291v0l6.207-16.741c0.324-0.883 0.435-1.516 0.334-1.897-0.104-0.375-0.472-0.678-1.104-0.91v0l-1.449-0.477-0.028-0.251 1.053-1.885c0.419 0.154 1.242 0.474 2.468 0.96 1.217 0.491 2.548 1.001 3.993 1.531v0c5.894 2.162 10.308 3.599 13.245 4.31v0l0.065 0.331c-0.213 0.361-0.697 1.182-1.453 2.463-0.749 1.284-1.466 2.7-2.151 4.248v0l-2.622-0.72c0.052-0.142 0.158-0.37 0.318-0.685 0.155-0.323 0.298-0.663 0.428-1.017v0c0.336-0.916 0.44-1.609 0.313-2.08-0.13-0.465-0.585-0.909-1.365-1.335-0.787-0.428-2.202-1.016-4.247-1.766v0c-0.954-0.35-1.615-0.563-1.982-0.64-0.374-0.079-0.647-0.04-0.821 0.116-0.181 0.153-0.384 0.488-0.611 1.005v0l-3.076 7.398 4.315 1.638c0.638 0.234 1.596 0.516 2.873 0.846 1.283 0.332 2.125 0.549 2.526 0.652v0l0.113 0.349-1.646 2.513c-0.387-0.142-1.148-0.44-2.284-0.893-1.134-0.46-2.336-0.923-3.606-1.389v0c-0.987-0.362-2.129-0.679-3.426-0.95v0c-1.091 2.636-2.032 5.03-2.823 7.184v0c-0.298 0.812-0.441 1.4-0.427 1.764 0.007 0.361 0.21 0.673 0.611 0.937 0.398 0.27 1.11 0.594 2.135 0.97v0c2.296 0.842 3.976 1.338 5.04 1.487 1.065 0.149 1.92-0.027 2.565-0.529 0.645-0.502 1.381-1.502 2.208-2.998v0l2.399 0.639 0.117 0.339c-0.245 0.349-0.762 1.191-1.552 2.525-0.787 1.328-1.537 2.743-2.248 4.245v0l-0.415 0.144c-0.936-0.38-2.89-1.155-5.863-2.326-2.972-1.171-5.394-2.099-7.264-2.786v0c-1.444-0.53-2.808-0.961-4.091-1.292-1.277-0.329-2.099-0.54-2.468-0.631z" fill="#ffffff" data-fill-palette-color="accent"></path><path d="M185.359 52.874l1.814-1.454c1.203 0.813 2.157 1.209 2.86 1.187 0.704-0.022 1.489-0.474 2.354-1.357v0l12.581-12.757c0.658-0.672 1.02-1.203 1.083-1.592 0.059-0.384-0.152-0.812-0.632-1.283v0l-1.368-1.268 0.077-0.241 1.699-1.322c0.157 0.154 0.579 0.591 1.266 1.313 0.683 0.726 1.601 1.654 2.754 2.783v0c0.618 0.606 1.417 1.306 2.397 2.103 0.98 0.806 1.617 1.324 1.91 1.554v0l-1.777 1.49c-0.989-0.757-1.744-1.165-2.263-1.222-0.515-0.063-1.103 0.189-1.763 0.754v0c-2.213 2.043-4.64 4.32-7.28 6.829-2.65 2.509-4.67 4.473-6.059 5.891v0c-0.841 0.859-1.312 1.531-1.414 2.018-0.102 0.477 0.129 0.992 0.694 1.545v0c0.373 0.365 0.728 0.685 1.066 0.958 0.333 0.278 0.568 0.456 0.705 0.532v0l-0.078 0.241-1.858 1.338c-0.324-0.317-0.913-0.923-1.768-1.818-0.864-0.894-1.738-1.774-2.621-2.639v0c-0.726-0.711-1.557-1.434-2.492-2.167-0.935-0.733-1.564-1.205-1.887-1.416z" fill="#ffffff" data-fill-palette-color="accent"></path><path d="M205.715 80.055l2.32-0.583c0.623 1.045 1.251 1.672 1.884 1.882 0.633 0.21 1.542 0.076 2.727-0.403v0l16.573-6.641c0.872-0.353 1.415-0.695 1.63-1.026 0.208-0.329 0.185-0.805-0.067-1.429v0l-0.62-1.394 0.149-0.238 2.1-0.495c0.072 0.178 0.268 0.707 0.586 1.586 0.315 0.888 0.769 2.064 1.362 3.528v0c0.309 0.764 0.747 1.691 1.314 2.78 0.561 1.092 0.929 1.802 1.106 2.131v0l-2.281 0.679c-0.481-0.895-0.913-1.487-1.297-1.776-0.38-0.298-0.758-0.408-1.134-0.33-0.379 0.072-1.128 0.271-2.247 0.598v0c-4.809 1.539-10.052 3.457-15.732 5.756v0c-0.866 0.35-1.467 0.686-1.804 1.007-0.337 0.322-0.48 0.746-0.429 1.274 0.048 0.521 0.277 1.288 0.687 2.301v0c0.675 1.668 1.312 2.84 1.912 3.516 0.597 0.67 1.383 1.037 2.358 1.102 0.984 0.069 2.428-0.097 4.333-0.497v0l1.185 2.187-0.249 0.29c-0.48 0.113-1.582 0.366-3.305 0.76-1.729 0.396-3.521 0.847-5.376 1.353v0l-0.423-0.14c-0.29-0.809-0.907-2.534-1.85-5.175-0.947-2.632-1.78-4.837-2.499-6.613v0c-0.564-1.394-1.15-2.669-1.759-3.823-0.605-1.148-0.99-1.87-1.154-2.167z" fill="#ffffff" data-fill-palette-color="accent"></path><path d="M12.731 172.989c-1.52-3.533-1.725-6.675-0.614-9.426 1.109-2.758 3.445-4.904 7.011-6.438v0l16.722-7.196c1.079-0.464 1.747-0.901 2.004-1.311 0.264-0.413 0.237-0.988-0.081-1.726v0c-0.144-0.334-0.305-0.665-0.483-0.993-0.182-0.318-0.302-0.547-0.362-0.685v0l0.167-0.184 2.375-0.607c0.136 0.42 0.431 1.202 0.885 2.344 0.454 1.143 0.927 2.285 1.419 3.428v0c0.391 0.908 0.89 1.912 1.498 3.012 0.611 1.09 1.025 1.791 1.241 2.101v0l-2.37 0.774c-0.699-1.172-1.335-1.886-1.908-2.14-0.567-0.257-1.353-0.207-2.358 0.151v0l-15.024 5.982c-3.331 1.434-5.579 3.257-6.742 5.47-1.161 2.219-1.155 4.692 0.018 7.418v0c1.189 2.763 2.826 4.552 4.912 5.367 2.088 0.821 4.514 0.637 7.277-0.552v0c2.678-1.197 5.728-2.57 9.152-4.118 3.421-1.555 5.816-2.645 7.184-3.271v0c1.15-0.577 1.835-1.044 2.056-1.4 0.229-0.353 0.184-0.902-0.136-1.647v0c-0.174-0.404-0.37-0.817-0.589-1.238-0.225-0.419-0.374-0.714-0.448-0.884v0l0.163-0.194 2.379-0.597c0.136 0.42 0.43 1.198 0.881 2.335 0.454 1.143 0.929 2.288 1.423 3.437v0c0.391 0.908 0.863 1.849 1.417 2.822 0.562 0.977 0.943 1.602 1.143 1.875v0l-2.366 0.783c-0.567-0.952-1.048-1.635-1.443-2.049-0.398-0.404-0.811-0.616-1.237-0.634-0.424-0.012-0.989 0.134-1.696 0.438v0l-16.968 7.302c-3.533 1.52-6.739 1.603-9.618 0.247-2.879-1.356-5.174-4.021-6.884-7.996z" fill="#ffffff" data-fill-palette-color="accent"></path><path d="M65.898 222.104l9.246-12.919c0.707-0.98 0.66-1.76-0.142-2.339v0l-1.336-0.964 0.04-0.251 1.572-1.508c0.243 0.226 0.725 0.621 1.446 1.183 0.726 0.566 1.474 1.127 2.242 1.681v0c0.657 0.474 1.421 0.971 2.292 1.489 0.865 0.514 1.43 0.841 1.694 0.981v0l-1.496 1.703c-0.948-0.506-1.733-0.721-2.355-0.645-0.613 0.074-1.183 0.442-1.711 1.103v0l-14.37 18.788-2.088-0.769c0.154-6.165 0.216-12.266 0.185-18.302-0.026-6.032-0.061-9.018-0.106-8.957v0l-0.225-0.162-9.882 13.413c-0.406 0.563-0.596 1.014-0.571 1.354 0.03 0.335 0.253 0.653 0.671 0.954v0l1.81 1.242 0.037 0.23-1.644 1.521c-0.247-0.221-0.751-0.631-1.512-1.232-0.765-0.595-1.58-1.203-2.443-1.826v0c-0.685-0.494-1.441-0.985-2.267-1.471-0.825-0.477-1.367-0.787-1.627-0.932v0l1.546-1.667c0.805 0.445 1.508 0.627 2.11 0.544 0.606-0.088 1.168-0.462 1.685-1.121v0l11.11-14.357c0.539-0.746 0.696-1.416 0.472-2.01-0.233-0.592-0.903-1.401-2.009-2.427v0l-0.021-0.359 1.409-1.283c0.214 0.197 0.639 0.558 1.275 1.086 0.636 0.527 1.297 1.037 1.982 1.531v0c0.657 0.474 1.247 0.878 1.768 1.213 0.527 0.338 0.878 0.544 1.052 0.619v0c-0.146 5.273-0.204 10.724-0.175 16.352 0.03 5.628 0.066 8.412 0.111 8.351v0z" fill="#ffffff" data-fill-palette-color="accent"></path><path d="M108.409 244.431c-0.284-1.534-0.949-4.834-1.996-9.899-1.046-5.065-2.062-9.786-3.048-14.161v0c-0.17-0.832-0.552-1.479-1.147-1.941-0.601-0.469-1.444-0.798-2.529-0.985v0l-0.096-0.176 0.541-2.036c0.403 0.041 1.132 0.134 2.188 0.277 1.056 0.143 2.092 0.267 3.11 0.371v0c1.093 0.112 2.411 0.186 3.955 0.221 1.544 0.028 2.557 0.049 3.038 0.064v0l0.13 0.345-0.366 1.951c-1.617-0.056-2.682 0-3.197 0.168-0.514 0.168-0.802 0.542-0.861 1.123v0c-0.06 0.588 0.383 3.526 1.33 8.816 0.946 5.297 1.597 8.902 1.952 10.817v0l0.492 0.051c1.593-2.936 3.47-6.575 5.629-10.918 2.16-4.349 3.27-6.817 3.33-7.404v0c0.06-0.581-0.117-1.013-0.529-1.297-0.413-0.277-1.146-0.47-2.198-0.579v0l-2.193-0.225-0.09-0.237 0.49-2.042c0.4 0.076 1.262 0.22 2.586 0.432 1.318 0.205 2.599 0.371 3.843 0.499v0c1.127 0.116 2.168 0.206 3.121 0.269 0.953 0.064 1.594 0.112 1.921 0.146v0l-0.619 2.194c-0.879-0.049-1.503 0.046-1.873 0.284-0.377 0.237-0.772 0.759-1.186 1.566v0l-11.585 21.801z" fill="#ffffff" data-fill-palette-color="accent"></path><path d="M157.066 240.805l-0.529-2.263c1.22-0.605 1.967-1.232 2.242-1.881 0.271-0.64 0.193-1.547-0.235-2.722v0l-5.918-16.385c-0.315-0.865-0.629-1.405-0.942-1.62-0.315-0.222-0.782-0.219-1.401 0.006v0l-1.373 0.566-0.174-0.177-0.403-2.069c0.413-0.151 1.226-0.428 2.437-0.833 1.218-0.408 2.534-0.869 3.948-1.384v0c5.75-2.096 9.946-3.801 12.588-5.116v0l0.25 0.205c0.074 0.404 0.233 1.322 0.478 2.754 0.251 1.429 0.606 2.937 1.068 4.524v0l-2.404 1.106c-0.049-0.136-0.118-0.374-0.206-0.714-0.085-0.334-0.192-0.676-0.318-1.025v0c-0.325-0.891-0.683-1.473-1.076-1.746-0.39-0.267-1.009-0.312-1.858-0.134-0.858 0.174-2.284 0.624-4.278 1.351v0c-0.929 0.339-1.559 0.597-1.888 0.776-0.323 0.176-0.502 0.377-0.537 0.601-0.033 0.231 0.029 0.611 0.185 1.139v0l2.364 7.45 4.248-1.493c0.62-0.226 1.51-0.62 2.672-1.183 1.164-0.556 1.93-0.923 2.297-1.1v0l0.298 0.187 0.362 2.917c-0.381 0.139-1.136 0.392-2.267 0.761-1.135 0.377-2.321 0.791-3.56 1.243v0c-0.962 0.35-2.014 0.833-3.157 1.446v0c0.849 2.651 1.658 5.029 2.424 7.133v0c0.287 0.787 0.548 1.313 0.784 1.578 0.229 0.267 0.58 0.377 1.052 0.329 0.47-0.054 1.205-0.264 2.205-0.628v0c2.233-0.814 3.794-1.504 4.685-2.07 0.886-0.557 1.414-1.225 1.584-2.002 0.161-0.782 0.078-1.991-0.248-3.628v0l2.201-1.032 0.304 0.174c0.036 0.418 0.178 1.372 0.429 2.86 0.25 1.488 0.58 3.016 0.991 4.584v0l-0.215 0.374c-0.943 0.3-2.892 0.952-5.845 1.955-2.949 0.995-5.337 1.825-7.163 2.491v0c-1.413 0.515-2.701 1.054-3.862 1.616-1.158 0.554-1.904 0.913-2.239 1.079z" fill="#ffffff" data-fill-palette-color="accent"></path><path d="M206.021 213.223l-1.381-1.806c0.813-1.153 1.218-2.074 1.215-2.763-0.008-0.685-0.435-1.459-1.281-2.323v0l-12.202-12.521c-0.644-0.657-1.153-1.019-1.526-1.086-0.378-0.072-0.803 0.123-1.274 0.584v0l-1.252 1.314-0.232-0.09-1.265-1.673c0.157-0.154 0.596-0.56 1.316-1.219 0.716-0.653 1.637-1.533 2.765-2.639v0c0.598-0.587 1.298-1.349 2.1-2.288 0.801-0.939 1.32-1.548 1.555-1.828v0l1.425 1.763c-0.762 0.949-1.18 1.676-1.253 2.18-0.068 0.509 0.169 1.09 0.711 1.741v0c1.94 2.195 4.112 4.606 6.514 7.234 2.397 2.632 4.276 4.642 5.637 6.03v0c0.817 0.834 1.459 1.306 1.924 1.418 0.47 0.107 0.98-0.109 1.529-0.648v0c0.368-0.361 0.689-0.7 0.965-1.017 0.27-0.323 0.447-0.549 0.531-0.68v0l0.225 0.083 1.271 1.841c-0.314 0.308-0.917 0.87-1.809 1.687-0.887 0.822-1.763 1.656-2.625 2.502v0c-0.711 0.697-1.433 1.496-2.166 2.397-0.737 0.896-1.21 1.498-1.417 1.807z" fill="#ffffff" data-fill-palette-color="accent"></path><path d="M233.114 175.612l-2.02-1.165c0.262-1.153 0.243-2.019-0.057-2.598-0.303-0.573-1.035-1.092-2.195-1.557v0l-16.151-6.531c-0.854-0.343-1.466-0.469-1.835-0.381-0.375 0.086-0.685 0.436-0.93 1.048v0l-0.495 1.4-0.272 0.069-1.809-1.081c0.069-0.172 0.289-0.676 0.662-1.511 0.374-0.841 0.848-1.976 1.42-3.404v0c0.299-0.746 0.62-1.694 0.963-2.844 0.34-1.144 0.563-1.894 0.669-2.251v0l2.058 1.069c-0.266 0.959-0.363 1.671-0.291 2.137 0.069 0.457 0.261 0.789 0.577 0.997 0.31 0.206 0.973 0.572 1.991 1.098v0c4.423 2.165 9.407 4.36 14.954 6.584v0c0.848 0.34 1.497 0.511 1.947 0.514 0.457 0.005 0.844-0.194 1.162-0.6 0.324-0.403 0.685-1.098 1.08-2.086v0c0.654-1.632 0.998-2.885 1.031-3.76 0.033-0.875-0.27-1.67-0.909-2.385-0.647-0.711-1.777-1.567-3.388-2.568v0l0.643-2.351 0.367-0.03c0.418 0.249 1.367 0.818 2.845 1.707 1.479 0.889 3.044 1.783 4.697 2.682v0l0.202 0.381c-0.344 0.765-1.075 2.396-2.194 4.892-1.119 2.496-2.027 4.612-2.722 6.345v0c-0.544 1.358-0.991 2.648-1.34 3.87-0.356 1.219-0.576 1.989-0.66 2.31z" fill="#ffffff" data-fill-palette-color="accent"></path><path d="M1.905 122.593c0-7.679 6.225-13.905 13.905-13.905 7.679 0 13.905 6.225 13.904 13.905 0 7.679-6.225 13.905-13.904 13.904-7.679 0-13.905-6.225-13.905-13.904z" fill="#ffffff" data-fill-palette-color="accent"></path><path d="M216.459 122.593c0-7.679 6.225-13.905 13.905-13.905 7.679 0 13.905 6.225 13.904 13.905 0 7.679-6.225 13.905-13.904 13.904-7.679 0-13.905-6.225-13.905-13.904z" fill="#ffffff" data-fill-palette-color="accent"></path></g><g id="text-1"></g></svg></g></svg></g></svg></g><defs></defs></svg><rect width="395.52" height="139.77367872092702" fill="none" stroke="none" visibility="hidden"></rect></g></svg></g></svg>